#N canvas 626 108 571 331 10;
#X obj 180 144 sendOSC;
#X msg 227 54 disconnect;
#X obj 61 54 hsl 128 15 0 127 0 0 empty empty empty -2 -6 0 10 -262144
-1 -1 1900 1;
#X msg 209 29 connect localhost 8000;
#X msg 142 109 send /fader/1 \$1;
#X msg 254 107 send /fader/16 \$1;
#X msg 370 101 send /fader/17 \$1;
#X msg 44 181 send /fader/32 \$1;
#X obj 59 31 counter 0 127;
#X obj 15 22 tgl 15 0 empty empty empty 0 -6 0 10 -262144 -1 -1 1 1
;
#X obj 61 6 metro 1;
#X connect 1 0 0 0;
#X connect 2 0 4 0;
#X connect 2 0 5 0;
#X connect 2 0 6 0;
#X connect 2 0 7 0;
#X connect 3 0 0 0;
#X connect 4 0 0 0;
#X connect 5 0 0 0;
#X connect 6 0 0 0;
#X connect 7 0 0 0;
#X connect 8 0 2 0;
#X connect 9 0 10 0;
#X connect 10 0 8 0;
